<svg xmlns="http://www.w3.org/2000/svg" width="2000" height="650" viewBox="0 0 2000 650">
  <defs>
    <style>
      .cls-1 {
        fill: none;
        stroke: #000;
        stroke-width: 17px;
      }

      .cls-1, .cls-2 {
        fill-rule: evenodd;
      }
    </style>
  </defs>
  <path id="Line_1" data-name="Line 1" class="cls-1" d="M152,533.936V533H1232v0.936H152Z"/>
  <path id="HOTEL" class="cls-2" d="M1364.23,577.637a5.26,5.26,0,0,1-1.13,3.6,7.457,7.457,0,0,1-3.82,1.971v2.474h32.93V583.2a7.9,7.9,0,0,1-3.86-2.01,5.2,5.2,0,0,1-1.09-3.556V488.188a5.2,5.2,0,0,1,1.09-3.557,7.93,7.93,0,0,1,3.86-2.01v-2.474h-32.93v2.474a7.31,7.31,0,0,1,3.86,1.972,5.4,5.4,0,0,1,1.09,3.595v34.017h-60.85V488.188a5.4,5.4,0,0,1,1.08-3.595,7.307,7.307,0,0,1,3.87-1.972v-2.474h-32.94v2.474a7.923,7.923,0,0,1,3.87,2.01,5.249,5.249,0,0,1,1.08,3.557v89.449a5.246,5.246,0,0,1-1.08,3.556,7.89,7.89,0,0,1-3.87,2.01v2.474h32.94V583.2a7.5,7.5,0,0,1-3.83-1.971,5.258,5.258,0,0,1-1.12-3.6V539.6h60.85v38.037Zm52.65-73.755a54.029,54.029,0,0,0-8.12,28.992,54.842,54.842,0,0,0,3.94,20.642,52.018,52.018,0,0,0,13.15,19.1q16.17,14.921,43.56,14.921,36.51,0,52.53-25.668a52.549,52.549,0,0,0,8.2-28.3q0-24.738-17.1-40.356-16.17-14.921-43.79-14.921-36.825.464-52.37,25.59h0Zm77.83,1.305q11.925,10.272,11.92,28.189a37.625,37.625,0,0,1-2.78,14.21,35.159,35.159,0,0,1-9.14,13.052q-9.975,8.958-25.23,8.958t-25.3-8.958q-11.925-10.579-11.92-27.726t11.92-27.725q10.05-8.96,25.15-8.959,15.24,0.156,25.38,8.959h0Zm139.1-7.645a5.421,5.421,0,0,1,3.63,1.061,7.717,7.717,0,0,1,2.01,3.887h2.48V475.2h-2.48a7.737,7.737,0,0,1-2.01,3.883,5.405,5.405,0,0,1-3.63,1.065h-88.52a5.144,5.144,0,0,1-3.52-1.065,8.511,8.511,0,0,1-2.05-3.883h-2.47V502.49h2.47a7.876,7.876,0,0,1,2.01-3.887,5.326,5.326,0,0,1,3.56-1.061h32.78v80.017a5.374,5.374,0,0,1-1.08,3.634,7.937,7.937,0,0,1-3.87,2.01v2.474h32.93V583.2a7.9,7.9,0,0,1-3.86-2.01,5.374,5.374,0,0,1-1.08-3.634V497.542h32.7Zm89.45,41.826a5.106,5.106,0,0,1,3.55,1.121,8.04,8.04,0,0,1,2.01,3.827h2.48V517.643h-2.48a7.824,7.824,0,0,1-2.01,3.866,5.222,5.222,0,0,1-3.55,1.082h-42.83V497.542h66.02a5.2,5.2,0,0,1,3.56,1.1,8.092,8.092,0,0,1,2.01,3.848h2.47V475.2h-2.47a8.109,8.109,0,0,1-2.01,3.845,5.184,5.184,0,0,1-3.56,1.1h-94.01v2.474a7.971,7.971,0,0,1,3.87,2.01,5.38,5.38,0,0,1,1.08,3.634v89.294a5.374,5.374,0,0,1-1.08,3.634,7.937,7.937,0,0,1-3.87,2.01v2.474h95.87a5.222,5.222,0,0,1,3.55,1.082,7.833,7.833,0,0,1,2.01,3.866h2.48V563.334h-2.48a7.824,7.824,0,0,1-2.01,3.866,5.222,5.222,0,0,1-3.55,1.082h-67.88V539.368h42.83Zm77.46-51.1a5.481,5.481,0,0,1,1.09-3.672,7.31,7.31,0,0,1,3.86-1.972v-2.474h-32.93v2.474a7.93,7.93,0,0,1,3.86,2.01,5.38,5.38,0,0,1,1.09,3.634v89.294a5.375,5.375,0,0,1-1.09,3.634,7.9,7.9,0,0,1-3.86,2.01v2.474h92.85a5.344,5.344,0,0,1,3.63,1.082,7.833,7.833,0,0,1,2.01,3.866h2.48V563.334h-2.48a7.824,7.824,0,0,1-2.01,3.866,5.344,5.344,0,0,1-3.63,1.082h-64.87V488.265Z"/>
  <path id="San_Diego" data-name="San Diego" class="cls-2" d="M320.7,341.107q41.3-28.482,48.828-71.818a140.378,140.378,0,0,0,2.442-25.025q0-36.416-26.449-60.018-12.617-11.186-37.842-24.617-4.882-2.641-34.993-16.886-20.347-9.561-28.076-16.276-9.36-7.935-9.359-17.294,0-17.7,22.176-27.262Q272.887,75.2,294.66,75.2q13.426,0,21.769,4.272t8.341,12.207q0,8.75-7.731,15.665a4.994,4.994,0,0,0-2.034,2.442q0,0.409,2.034,2.034a16.352,16.352,0,0,0,7.324,1.424q1.832,0,5.9-.407t10.376-5.7q7.729-6.51,7.731-16.073,0-13.018-15.055-18.921Q320.5,66.857,297.3,66.856q-30.517,0-53.711,11.6-26.854,13.428-31.127,37.435a35.271,35.271,0,0,0-.611,6.511q0,20.346,23.8,35.807Q263.325,172.853,291.4,187.3q21.563,12.413,31.942,20.752,25.429,20.752,25.431,47.608a71.775,71.775,0,0,1-1.22,12.817q-6.514,36.621-39.47,61.442-31.942,23.8-70.394,23.8-37.84,0-62.255-17.294-22.584-16.068-22.583-40.69,0-31.938,28.686-52.083a81.876,81.876,0,0,1,48.625-15.666q20.751,0,33.874,8.24T277.163,258.1q0,14.853-12.411,24.821a35.335,35.335,0,0,1-22.583,7.731,20.2,20.2,0,0,1-13.224-4.679q-4.882-3.862-4.883-9.156l0.2-1.831q1.83-8.949,4.272-11.393l1.221-2.848c0-.677-0.477-1.017-1.424-1.017q-7.736,0-15.666,5.9A21.891,21.891,0,0,0,202.5,284.751q0,10.986,10.783,17.5t28.28,6.51q19.121,0,35.6-11.8,20.751-14.649,20.752-38.249,0-18.51-15.869-29.5-17.295-11.8-48.422-11.8-31.942,0-58.186,19.735-32.554,24.618-32.553,62.459,0,29.3,23.194,48.014,25.834,20.547,68.563,20.549,47,0,86.059-27.059h0Zm169.881,8.545q21.563-11.6,26.449-18.311-5.088,16.89-10.579,22.38a4.617,4.617,0,0,0-1.425,2.645q0,1.83,5.29,1.831c0.947,0,2.442-.067,4.476-0.2s4-.2,5.9-0.2a104.145,104.145,0,0,1,13.835,1.017,58.486,58.486,0,0,0,7.12,1.017q2.847,0,3.052-2.238,0-.81-3.458-8.748a5.239,5.239,0,0,1-.2-1.628q0-9.154,15.055-59.814t15.056-75.684q0-3.051-.2-5.7Q568.7,177.329,552.838,163.7q-20.957-17.291-50.659-17.293-26.655,0-47.4,10.986Q432.392,169.4,432.4,193.2a21.58,21.58,0,0,0,4.069,13.225q6.3,8.955,19.734,8.951a30.384,30.384,0,0,0,17.294-5.493q11.8-7.73,11.8-18.717a13.008,13.008,0,0,0-2.645-7.731q-4.272-5.9-10.173-5.9c-1.627,0-2.511.407-2.645,1.22a31.318,31.318,0,0,1,.611,7.121q-0.411,6.513-5.086,9.766a13.256,13.256,0,0,1-7.325,2.238q-6.308,0-8.951-4.883a12.647,12.647,0,0,1-1.425-6.1q0-14.849,13.53-21.159T498.314,158l3.255-.2q21.361,0,37.231,16.886,6.714,6.919,6.714,24.211,0,18.31-7.528,48.014a89.355,89.355,0,0,0-24.821-19.938q-15.463-8.135-34.993-8.138-30.518,0-57.17,17.9-29.907,19.941-37.028,51.269a74.009,74.009,0,0,0-1.831,16.276,51.727,51.727,0,0,0,13.428,35.6q18.921,21.363,52.49,21.362Q469.013,361.248,490.582,349.652ZM420.8,321.779a42.3,42.3,0,0,1-9.766-27.466q0-29.3,26.652-47.607,18.512-12.817,39.063-12.818,30.312,0,45.369,15.87a34.942,34.942,0,0,1,10.173,25.431,55.493,55.493,0,0,1-1.424,12.207,63.267,63.267,0,0,1-25.432,38.859q-18.311,13.428-42.521,13.428-27.465,0-42.114-17.9h0Zm353.8,34.18q19.122-8.95,19.125-26.449a14.348,14.348,0,0,0-2.645-8.952,12.682,12.682,0,0,0-7.935-5.289,36.336,36.336,0,0,0-7.934-.611,25.71,25.71,0,0,0-14.242,4.069q-2.035,1.427-2.238,2.238,0,0.611,3.052,2.035,7.119,3.051,7.121,8.952,0,8.544-9.766,12.613a39.079,39.079,0,0,1-14.648,2.849,36.2,36.2,0,0,1-11.19-1.424,394.088,394.088,0,0,0,40.181-57.984,189.518,189.518,0,0,0,21.668-60.425,86.607,86.607,0,0,0,1.424-15.258,72.682,72.682,0,0,0-8.952-35.6q-15.463-28.887-53.711-28.89-20.751,0-43.742,16.886A137.008,137.008,0,0,0,662.7,191.164q0-16.07-10.58-33.773-6.1-10.171-22.99-10.173-21.972,0-38.859,15.87-10.78,10.376-10.783,22.786,0,9.97,5.087,14.445a11.079,11.079,0,0,0,7.527,2.848,10.383,10.383,0,0,0,3.662-.61,31.358,31.358,0,0,0,9.054-3.255,22.877,22.877,0,0,0,5.595-5.086,5.579,5.579,0,0,0,1.424-2.645c0-.407-1.017-0.744-3.052-1.018q-8.344-1.421-8.341-9.765,0-6.3,5.7-10.987,7.324-6.1,13.225-6.1,6.1,0,10.579,6.51,7.73,11.192,7.731,21.77,0,6.918-24.617,145.263-0.61,3.663-8.749,9.156-9.765,7.323-9.765,9.969,0,1.83,4.679,1.831,6.3-.407,11.088-0.814t13.123-.407q6.913,0,15.462.61t9.562,0.611q3.862,0,3.866-2.645a6.323,6.323,0,0,0-1.628-3.866q-10.375-9.154-10.376-13.427,0-.611,22.99-131.633,11.187-16.069,25.431-24.821a63.51,63.51,0,0,1,34.18-10.172q26.445,0,38.249,21.972,7.323,13.633,7.324,32.756,0,45.775-36.011,95.825-8.546,11.8-22.99,29.7a5.221,5.221,0,0,0-1.424,3.865q0,2.647,22.786,6.511a77.983,77.983,0,0,0,12.411,1.017,71.647,71.647,0,0,0,31.331-7.324h0ZM1052.72,91.473q3.66,2.036,3.66,6.917,0,1.426-22.58,131.022-27.48-5.082-39.678-20.141-10.174-12.817-10.172-32.959,0-48.218,45.37-76.091a128.366,128.366,0,0,1,19.73-9.969Zm7.93,149.943q25.02-3.051,49.24-21.566,28.47-21.766,28.48-47a25.144,25.144,0,0,0-2.65-11.8q-4.68-8.546-16.07-8.545-15.06,0-22.38,14.038a14.9,14.9,0,0,0-1.42,5.9c0,1.628.4,2.442,1.22,2.442s1.83-.983,3.05-2.95,4.81-2.95,10.78-2.95q4.065,0,6.11,4.272a17.124,17.124,0,0,1,1.01,6.1q0,18.514-23.6,35.6-18.51,12.817-31.33,12.818l26.04-147.5a142.5,142.5,0,0,1,15.26-.814q51.075,0,77.52,34.994,18.915,25.024,18.92,58.8a139.885,139.885,0,0,1-2.24,24.414q-11.4,71.821-39.57,107.727a233.2,233.2,0,0,1-68.36,58.9q-40.185,22.989-84.33,22.99-30.929,0-50.151-11.8t-19.226-31.331a39.115,39.115,0,0,1,7.121-22.99q4.677-6.714,11.189-6.714,7.935,0,9.563,8.952,0.609,3.257,1.22,3.255,0.811,0,2.645-1.628a25.873,25.873,0,0,0,4.781-6.408,37.9,37.9,0,0,0,2.95-10.071,16.042,16.042,0,0,0,.407-3.459,12.734,12.734,0,0,0-3.255-8.748q-4.272-5.084-13.835-5.087-12.818,0-22.99,12.818a60.9,60.9,0,0,0-14.038,39.469q0,25.024,23.194,40.894,24.613,16.884,62.865,16.886,54.12,0,94.71-22.99t75.38-64.087q34.785-41.094,46.99-106a167.209,167.209,0,0,0,2.85-29.908q0-44.351-27.06-74.056-33.765-37.431-95.01-37.434a160.032,160.032,0,0,0-86.87,25.228q-42.324,26.656-49.441,66.529a117.169,117.169,0,0,0-1.831,19.938q0,24.823,13.02,40.893,16.275,19.531,50.052,23.194l-7.33,41.911q-7.935,41.709-9.97,54.728-0.81,4.072-7.93,8.952-9.36,6.307-10.275,7.12a2.847,2.847,0,0,0-.915,2.238q0,2.037,4.679,2.035l5.491-.2q13.425-1.219,20.14-1.22,3.87,0,14.04.813,7.935,0.611,10.99.611c3.52,0,5.29-1.084,5.29-3.255q-0.42-1.422-7.94-8.138-4.875-4.273-4.88-7.935l8.55-47.811q0.4-1.421.81-3.255Zm232.54-126.139q7.935-6.508,7.94-15.869a16.094,16.094,0,0,0-3.05-9.562,13.747,13.747,0,0,0-11.6-5.7,21.591,21.591,0,0,0-13.83,5.29q-7.935,6.309-7.94,15.87a15.517,15.517,0,0,0,3.05,9.562,13.922,13.922,0,0,0,11.6,5.493,21.521,21.521,0,0,0,13.83-5.086h0Zm-10.17,53.507q0.81-4.066,7.94-8.952,9.345-6.3,10.27-7.12a2.842,2.842,0,0,0,.92-2.238q0-2.032-4.68-2.035l-5.5.2q-13.425,1.219-20.14,1.22-3.87,0-14.04-.813-7.935-.611-10.98-0.611-5.3,0-5.29,3.255,0.4,1.427,7.93,8.138,4.89,4.274,4.89,7.935l-28.49,170.288q-0.81,4.272-14.85,14.038-2.85,2.852-2.85,4.273c0,1.357,1.5,2.034,4.48,2.034q6.105-.4,10.78-0.814t12.21-.407q4.065,0,16.68,1.018,2.445,0.2,6.1.2,5.085,0,5.09-2.645a6.6,6.6,0,0,0-1.83-3.865q-9.57-8.546-9.56-12.411,0-.61,14.85-81.889t16.07-88.806h0ZM1311.91,287.6a82.949,82.949,0,0,1-3.86-24.821,77.741,77.741,0,0,1,1.22-13.631,107.61,107.61,0,0,1,27.67-55.745q23.385-24.82,52.49-24.821,15.66,0,25.83,5.7t10.18,15.259q0,10.581-16.08,30.111-43.53,49.238-82.8,95.622a75.064,75.064,0,0,1-14.65-27.67h0ZM1429.4,347.21q27.78-18.31,34.29-40.486a39.225,39.225,0,0,0,1.83-11.19,24.237,24.237,0,0,0-4.68-14.852q-5.91-8.745-13.63-8.748a12.5,12.5,0,0,0-9.97,4.882q-9.165,9.156-9.16,17.294c0,1.087.21,1.627,0.61,1.627a11.172,11.172,0,0,0,3.05-.813,13.267,13.267,0,0,1,5.5-1.425,8.613,8.613,0,0,1,7.32,4.069,11.83,11.83,0,0,1,2.04,6.714,19.2,19.2,0,0,1-1.22,6.307q-4.275,11.6-20.45,21.464t-37.94,9.868A79.513,79.513,0,0,1,1334.7,323q29.7-36.211,62.46-72.429,48.615-53.91,48.62-73.649,0-9.355-9.15-14.038a73.293,73.293,0,0,0-32.76-7.934q-41.91,0-75.58,31.534t-41.2,74.667a114.823,114.823,0,0,0-1.83,19.938q0,31.943,20.65,53.914t35.91,26.449q13.425,4.067,31.53,4.069Q1401.64,365.521,1429.4,347.21Zm101.22-69.173q-20.145-5.9-28.89-22.176a23.884,23.884,0,0,1-3.25-11.6q0-11.391,9.56-11.393,12.21,0,23.19,8.545,10.17,7.935,10.17,17.09-0.2,9.36-4.88,15.666l-3.46,4.069Zm57.58,149.536q48.615-23.8,48.62-64.494,0-25.023-23.29-39.774t-58.7-14.75q-26.04,0-46.79,6.307a127.68,127.68,0,0,0,32.55-26.245l4.88,0.2a67.954,67.954,0,0,0,7.12.407q35.805,0,63.48-17.293,36.825-22.784,36.83-61.646,0-18.51-12.62-33.162,3.66-6.51,3.66-20.752a62.767,62.767,0,0,0-14.44-40.487q-10.185-12.817-22.99-12.817-9.57,0-13.84,5.086a12.722,12.722,0,0,0-3.25,8.748,15.443,15.443,0,0,0,.41,3.459,37.413,37.413,0,0,0,2.95,10.071,25.629,25.629,0,0,0,4.78,6.408c1.22,1.088,2.1,1.628,2.64,1.628,0.41,0,.82-1.084,1.22-3.255q1.635-8.951,9.56-8.952,6.51,0,11.19,6.714a39.116,39.116,0,0,1,7.12,22.99,29.359,29.359,0,0,1-1.62,10.376q-16.89-10.171-29.5-14.445t-30.72-4.273q-28.29,0-49.04,12.411a108.054,108.054,0,0,0-15.86,12.207q-13.035,12.413-13.03,23.4t6.72,15.462a11.6,11.6,0,0,0,7.12,2.441,15.528,15.528,0,0,0,5.29-.813,41.284,41.284,0,0,0,9.66-4.069,26.431,26.431,0,0,0,6-5.494,4.914,4.914,0,0,0,1.23-2.441c0-.54-1.09-0.947-3.26-1.221q-9.975-.61-9.97-8.952,0-7.729,17.7-18.92,18.51-11.6,35.4-12.614l5.29-.2q13.425,0,22.79,3.662,11.19,4.477,21.36,16.073t10.17,29.5a79.913,79.913,0,0,1-1.42,14.445q-3.87,22.788-26.86,40.487-21.975,16.89-44.15,16.886-2.43,0-4.68-.2,6.51-10.171,7.74-24.821,0-13.222-15.26-24.821-17.3-13.428-36.42-13.428-12.42,0-19.74,2.848-10.365,4.477-10.37,17.5a38.672,38.672,0,0,0,12.61,29.094,74.432,74.432,0,0,0,37.64,20.548q-16.275,18.111-51.88,40.08a3.822,3.822,0,0,0-1.63,2.645q0,1.219,4.28,5.086,7.11,5.9,8.54,5.9a3.071,3.071,0,0,0,1.83-.814q23.4-19.731,61.04-19.734,27.045,0,44.15,13.631,15.45,12.207,15.46,29.907a44.762,44.762,0,0,1-.82,8.341q-4.68,26.856-34.99,45.166a116.271,116.271,0,0,1-60.83,17.09q-26.445,0-43.54-8.24t-17.09-21.87a21.016,21.016,0,0,1,6.31-15.056c3.25-3.392,6.92-5.086,10.98-5.086q13.44,0,16.08,11.6a1.3,1.3,0,0,0,1.42,1.22,4.091,4.091,0,0,0,2.24-1.22,18.441,18.441,0,0,0,4.07-12.207q0-8.545-6-13.428t-17.81-4.883a32.433,32.433,0,0,0-21.97,8.138q-9.36,8.134-11.8,21.973a33.917,33.917,0,0,0-.61,6.307q0,18.31,20.96,30.721,21.96,13.222,54.52,13.224,44.76,0,81.18-17.5h0Zm239.66-93.18q38.25-31.533,45.98-76.091a124.016,124.016,0,0,0,1.83-20.752q0-31.938-19.12-56.355-25.635-31.94-70.39-31.942-44.775,0-82.2,31.331-37.44,31.334-45.16,75.684a124.2,124.2,0,0,0-1.84,20.955q0,32.149,19.33,56.153,25.845,31.739,71.41,31.738,42.93,0,80.16-30.721h0Zm-128.17-20.549q-21.36-25.429-21.36-56.762,0-40.689,32.14-67.139,25.23-21.158,56.15-21.159,39.48,0,66.94,32.552,21.555,25.635,21.56,53.3a73.242,73.242,0,0,1-1.22,13.225q-6.3,36.01-33.36,57.78-24.825,19.736-55.54,19.734-38.67,0-65.31-31.535h0Z"/>
</svg>
