<svg xmlns="http://www.w3.org/2000/svg" width="2000" height="1400" viewBox="0 0 2000 1400">
  <defs>
    <style>
      .cls-1, .cls-2 {
        fill-rule: evenodd;
      }

      .cls-2 {
        fill: #fff;
      }
    </style>
  </defs>
  <path class="cls-1" d="M1000,65c529.64,0,959,284.3,959,635s-429.36,635-959,635S41,1050.7,41,700,470.359,65,1000,65Z"/>
  <path id="H" class="cls-2" d="M422.215,1003.03q49.07-22.335,90.271-94.112T613.377,493.269q27.465,13.183,65.185,21.789t67.383,8.606q61.884,0,104-17.211L792.82,829.817q-1.1,7.329-14.282,16.113-16.85,11.355-18.311,12.817a5.45,5.45,0,0,0-1.465,4.029q0,3.655,8.423,3.662l9.522-.366q24.17-2.2,35.888-2.2,7.322,0,25.269,1.465,14.643,1.1,19.775,1.1,9.519,0,9.522-5.86,0-1.827-14.282-14.648-8.429-7.321-8.423-13.916l80.932-458.5q1.1-6.952,14.283-15.747,16.479-11.348,17.212-12.451a6.649,6.649,0,0,0,2.2-4.761q0-3.3-5.86-3.3-1.836,0-17.395,1.1t-30.578,1.1q-7.33,0-25.635-1.465-13.552-.729-21.973-0.732-6.96,0-6.958,5.859,0,1.1,14.283,14.649,8.419,8.06,8.422,14.282l-18.676,106.2q-31.5,13.552-54.932,17.578Q784.757,498.4,758.4,498.4q-32.958,0-72.876-10.986t-66.65-24.537l15.747-89.355q1.1-6.952,14.282-15.747,16.84-11.348,17.578-12.451a6.646,6.646,0,0,0,2.2-4.761q0-3.3-5.86-3.3-1.836,0-17.578,1.1t-30.395,1.1q-7.33,0-26-1.465-13.554-.729-21.973-0.732-6.962,0-6.958,5.859,0,1.1,14.282,14.649,8.419,8.06,8.423,14.282L567.6,458.479q-75.806,0-115.722,41.016A83.168,83.168,0,0,0,431,541.975a59.788,59.788,0,0,0-.733,9.155q0,15.75,10.987,25.635t29.663,9.888q20.136,0,38.818-13.916,3.657-3.3,3.662-5.86a1.942,1.942,0,0,0-2.2-2.2,6.967,6.967,0,0,0-2.2.549,21.888,21.888,0,0,1-6.226.55q-10.986,0-16.663-3.662a23.587,23.587,0,0,1-8.056-7.874,20.889,20.889,0,0,1-2.381-10.437q0-26.367,31.128-42.847a99.984,99.984,0,0,1,46.509-11.352,63.983,63.983,0,0,1,8.789.732q-58.6,315.308-83.313,392.578t-60.608,95.948q-18.676,9.887-35.522,9.887a58.874,58.874,0,0,1-30.762-8.789,72.232,72.232,0,0,1-28.931-32.226,33.24,33.24,0,0,1-2.929-12.818,21.735,21.735,0,0,1,2.929-10.986q4.755-8.06,13.55-8.057a25.5,25.5,0,0,1,8.606,1.648,25.619,25.619,0,0,0,5.676,1.648c0.733,0,1.1-.858,1.1-2.563l-0.366-3.662q-3.664-13.923-18.311-27.1-8.06-6.961-16.845-6.958-15.021,0-25.269,16.846a45.447,45.447,0,0,0-6.226,23.437,68.672,68.672,0,0,0,4.761,23.8q13.914,37.715,47.974,58.224a81.255,81.255,0,0,0,42.48,12.09q20.136,0,42.115-10.26h0Z"/>
  <path id="S" class="cls-2" d="M1072.95,1131.45q74.34-51.27,87.89-129.27a252.766,252.766,0,0,0,4.4-45.046q0-65.549-47.61-108.032-22.71-20.136-68.11-44.312-8.79-4.755-62.992-30.395-36.624-17.209-50.537-29.3-16.848-14.281-16.846-31.128,0-31.86,39.917-49.072,27.827-12.086,67.018-12.085,24.165,0,39.18,7.69t15.02,21.973q0,15.75-13.92,28.2-3.3,2.567-3.66,4.395,0,0.738,3.66,3.662,5.13,2.567,13.19,2.563,3.285,0,10.62-.732,7.32-.729,18.67-10.254,13.92-11.716,13.92-28.931,0-23.431-27.1-34.057-23.07-9.519-64.82-9.522-54.933,0-96.68,20.874-48.34,24.171-56.03,67.383a63.455,63.455,0,0,0-1.1,11.719q0,36.624,42.847,64.453,49.8,26.367,100.342,52.368,38.8,22.342,57.49,37.354,45.78,37.353,45.78,85.693a128.548,128.548,0,0,1-2.2,23.068q-11.715,65.925-71.04,110.6-57.5,42.84-126.71,42.85-68.115,0-112.061-31.13-40.649-28.935-40.649-73.24,0-57.495,51.636-93.754,39.55-28.2,87.524-28.2,37.353,0,60.974,14.832t23.621,39.367q0,26.738-22.339,44.674a63.558,63.558,0,0,1-40.65,13.92,36.352,36.352,0,0,1-23.8-8.42q-8.79-6.96-8.789-16.48l0.366-3.3q3.3-16.11,7.69-20.506l2.2-5.127c0-1.219-.859-1.831-2.564-1.831q-13.921,0-28.2,10.62-18.317,12.456-18.311,34.424,0,19.77,19.409,31.49t50.9,11.72q34.417,0,64.087-21.24,37.358-26.37,37.355-68.845,0-33.319-28.57-53.1-31.125-21.235-87.154-21.241-57.5,0-104.737,35.523-58.6,44.314-58.594,112.423,0,52.74,41.749,86.43,46.5,36.99,123.413,36.99,84.594,0,154.9-48.71h0Z"/>
  <path id="D" class="cls-2" d="M1398.89,381.11q6.6,3.664,6.6,12.451,0,2.567-40.65,235.84-49.44-9.15-71.41-36.255-18.33-23.072-18.32-59.326,0-86.793,81.67-136.963a231.015,231.015,0,0,1,35.52-17.945Zm14.29,269.9q45.045-5.493,88.62-38.818,51.27-39.182,51.27-84.595a45.449,45.449,0,0,0-4.76-21.24q-8.43-15.381-28.93-15.381-27.105,0-40.29,25.269a26.833,26.833,0,0,0-2.56,10.62q0,4.394,2.2,4.394t5.49-5.31q3.3-5.3,19.41-5.31,7.32,0,10.99,7.691a30.5,30.5,0,0,1,1.83,10.986q0,33.329-42.48,64.087-33.33,23.071-56.4,23.071l46.88-265.5a256.1,256.1,0,0,1,27.46-1.465q91.92,0,139.53,62.989,34.05,45.043,34.06,105.835a251.985,251.985,0,0,1-4.03,43.945q-20.52,129.277-71.23,193.909A419.806,419.806,0,0,1,1467.19,872.2q-72.33,41.379-151.79,41.381-55.68,0-90.27-21.24-34.605-21.243-34.61-56.4a70.412,70.412,0,0,1,12.82-41.382q8.415-12.086,20.14-12.085,14.28,0,17.21,16.113c0.73,3.908,1.47,5.86,2.2,5.86q1.455,0,4.76-2.93a46.715,46.715,0,0,0,8.61-11.536q3.1-6.042,5.31-18.127a29.235,29.235,0,0,0,.73-6.226,22.939,22.939,0,0,0-5.86-15.747q-7.7-9.15-24.9-9.155-23.07,0-41.39,23.071-25.26,31.131-25.26,71.045,0,45.043,41.74,73.608,44.31,30.393,113.16,30.4,97.41,0,170.47-41.382t135.69-115.356q62.61-73.97,84.59-190.8a300.965,300.965,0,0,0,5.13-53.833q0-79.831-48.71-133.3-60.8-67.377-171.02-67.383-84.24,0-156.37,45.41-76.185,47.98-88.99,119.751a210.715,210.715,0,0,0-3.3,35.889q0,44.683,23.44,73.608,29.295,35.157,90.09,41.748l-13.19,75.44q-14.28,75.077-17.94,98.511-1.47,7.329-14.28,16.113-16.845,11.355-18.5,12.817a5.145,5.145,0,0,0-1.64,4.029q0,3.664,8.42,3.662l9.89-.366q24.165-2.2,36.25-2.2,6.96,0,25.27,1.465,14.28,1.1,19.78,1.1,9.51,0,9.52-5.86-0.735-2.558-14.28-14.648-8.79-7.691-8.79-14.282l15.38-86.06q0.72-2.558,1.46-5.859Z"/>
</svg>
